<svg width="11" height="11" viewBox="0 0 11 11" xmlns="http://www.w3.org/2000/svg">
<path d="M4.51889 9.50131C4.6939 9.36481 4.85262 9.20609 5.17006 8.88865L9.12746 4.93125C9.22313 4.83557 9.17934 4.67078 9.05151 4.62643C8.58439 4.46437 7.97674 4.1601 7.40832 3.59168C6.8399 3.02326 6.53563 2.41561 6.37357 1.94849C6.32922 1.82066 6.16443 1.77687 6.06875 1.87254L2.11135 5.82994C1.79391 6.14738 1.63519 6.3061 1.49869 6.48111C1.33767 6.68755 1.19962 6.91092 1.08699 7.14726C0.991503 7.34762 0.920522 7.56056 0.778558 7.98645L0.595123 8.53676L0.303441 9.4118L0.0299466 10.2323C-0.0399147 10.4419 0.0146326 10.6729 0.170847 10.8292C0.327062 10.9854 0.558129 11.0399 0.767713 10.9701L1.5882 10.6966L2.46324 10.4049L3.01355 10.2214L3.01358 10.2214C3.43945 10.0795 3.65239 10.0085 3.85274 9.91301C4.08908 9.80037 4.31245 9.66232 4.51889 9.50131Z"/>
<path d="M10.3665 3.69218C11.2112 2.84754 11.2112 1.47812 10.3665 0.633478C9.52188 -0.211159 8.15246 -0.211159 7.30782 0.633478L7.18059 0.760705C7.05782 0.883476 7.00219 1.05496 7.03287 1.22586C7.05216 1.33336 7.08793 1.49053 7.15299 1.67807C7.28312 2.05314 7.52885 2.54549 7.99168 3.00832C8.45452 3.47115 8.94686 3.71688 9.32193 3.84701C9.50947 3.91207 9.66664 3.94784 9.77414 3.96713C9.94504 3.99781 10.1165 3.94218 10.2393 3.81941L10.3665 3.69218Z" />
</svg>
