<?xml version="1.0" encoding="UTF-8"?>
<!DOCTYPE svg PUBLIC "-//W3C//DTD SVG 1.1//EN" "http://www.w3.org/Graphics/SVG/1.1/DTD/svg11.dtd">
<svg xmlns="http://www.w3.org/2000/svg" version="1.1" width="1357px" height="1130px" style="shape-rendering:geometricPrecision; text-rendering:geometricPrecision; image-rendering:optimizeQuality; fill-rule:evenodd; clip-rule:evenodd" xmlns:xlink="http://www.w3.org/1999/xlink">
<g><path style="opacity:0.995" fill="#db1e13" d="M 180.5,179.5 C 269.167,179.333 357.834,179.5 446.5,180C 489.271,185.769 517.105,209.269 530,250.5C 539.245,296.634 524.411,332.634 485.5,358.5C 529.723,381.612 547.889,417.945 540,467.5C 528.738,509.097 501.904,533.597 459.5,541C 366.501,541.5 273.501,541.667 180.5,541.5C 180.5,420.833 180.5,300.167 180.5,179.5 Z M 346.5,250.5 C 365.481,248.074 379.648,255.074 389,271.5C 396.175,290.298 392.009,306.132 376.5,319C 354.6,330.481 336.433,326.315 322,306.5C 311.91,279.691 320.076,261.025 346.5,250.5 Z M 353.5,394.5 C 377.085,396.42 390.085,409.086 392.5,432.5C 391.747,450.755 382.747,462.921 365.5,469C 344.976,472.986 329.809,465.82 320,447.5C 313.128,418.238 324.295,400.572 353.5,394.5 Z"/></g>
<g><path style="opacity:0.993" fill="#db1e13" d="M 630.5,180.5 C 722.167,180.333 813.834,180.5 905.5,181C 930.924,187.422 945.424,203.589 949,229.5C 949.667,317.5 949.667,405.5 949,493.5C 944.167,521 928,537.167 900.5,542C 812.167,542.667 723.833,542.667 635.5,542C 608.675,538.174 592.508,523.008 587,496.5C 586.333,406.5 586.333,316.5 587,226.5C 592.151,202.185 606.651,186.852 630.5,180.5 Z M 683.5,314.5 C 688.511,314.334 693.511,314.501 698.5,315C 711.706,322.435 725.373,329.102 739.5,335C 758.167,342.333 776.833,342.333 795.5,335C 809.627,329.102 823.294,322.435 836.5,315C 858.836,312.362 872.67,321.862 878,343.5C 879.084,358.165 873.584,369.665 861.5,378C 805.333,415.269 747.333,418.269 687.5,387C 677.55,381.945 669.05,375.112 662,366.5C 651.514,341.779 658.681,324.446 683.5,314.5 Z"/></g>
<g><path style="opacity:0.928" fill="#db1e13" d="M 1015.5,180.5 C 1025.83,180.5 1036.17,180.5 1046.5,180.5C 1046.5,190.5 1046.5,200.5 1046.5,210.5C 1036.17,210.5 1025.83,210.5 1015.5,210.5C 1015.5,200.5 1015.5,190.5 1015.5,180.5 Z"/></g>
<g><path style="opacity:0.983" fill="#db1e13" d="M 1102.5,180.5 C 1113.5,180.5 1124.5,180.5 1135.5,180.5C 1135.5,183.167 1135.5,185.833 1135.5,188.5C 1147.88,188.187 1160.22,188.52 1172.5,189.5C 1173.58,190.665 1174.42,191.998 1175,193.5C 1175.5,204.495 1175.67,215.495 1175.5,226.5C 1166.83,226.5 1158.17,226.5 1149.5,226.5C 1149.5,222.5 1149.5,218.5 1149.5,214.5C 1144.83,214.5 1140.17,214.5 1135.5,214.5C 1135.5,220.833 1135.5,227.167 1135.5,233.5C 1148.5,233.5 1161.5,233.5 1174.5,233.5C 1174.67,248.504 1174.5,263.504 1174,278.5C 1165.2,288.304 1156.03,297.804 1146.5,307C 1157.17,317.667 1167.83,328.333 1178.5,339C 1164.17,339.667 1149.83,339.667 1135.5,339C 1132.32,335.651 1128.98,332.484 1125.5,329.5C 1122.02,332.484 1118.68,335.651 1115.5,339C 1096.17,339.5 1076.84,339.667 1057.5,339.5C 1057.33,290.499 1057.5,241.499 1058,192.5C 1058.47,191.069 1059.3,189.903 1060.5,189C 1074.5,188.5 1088.5,188.333 1102.5,188.5C 1102.5,185.833 1102.5,183.167 1102.5,180.5 Z M 1088.5,214.5 C 1093.17,214.5 1097.83,214.5 1102.5,214.5C 1102.5,220.833 1102.5,227.167 1102.5,233.5C 1097.83,233.5 1093.17,233.5 1088.5,233.5C 1088.5,227.167 1088.5,220.833 1088.5,214.5 Z M 1088.5,262.5 C 1108.5,262.333 1128.5,262.5 1148.5,263C 1141.36,271.136 1133.86,278.97 1126,286.5C 1121.17,281.667 1116.33,276.833 1111.5,272C 1103.84,271.5 1096.17,271.334 1088.5,271.5C 1088.5,268.5 1088.5,265.5 1088.5,262.5 Z M 1088.5,292.5 C 1094.15,297.479 1099.48,302.812 1104.5,308.5C 1099.52,313.985 1094.35,319.319 1089,324.5C 1088.5,313.839 1088.33,303.172 1088.5,292.5 Z"/></g>
<g><path style="opacity:0.936" fill="#db1e13" d="M 1015.5,220.5 C 1025.83,220.5 1036.17,220.5 1046.5,220.5C 1046.5,230.5 1046.5,240.5 1046.5,250.5C 1036.17,250.5 1025.83,250.5 1015.5,250.5C 1015.5,240.5 1015.5,230.5 1015.5,220.5 Z"/></g>
<g><path style="opacity:0.949" fill="#db1e13" d="M 1015.5,261.5 C 1025.83,261.5 1036.17,261.5 1046.5,261.5C 1046.5,287.5 1046.5,313.5 1046.5,339.5C 1036.17,339.5 1025.83,339.5 1015.5,339.5C 1015.5,313.5 1015.5,287.5 1015.5,261.5 Z"/></g>
<g><path style="opacity:0.984" fill="#db1e13" d="M 1075.5,383.5 C 1088.5,383.5 1101.5,383.5 1114.5,383.5C 1114.5,387.167 1114.5,390.833 1114.5,394.5C 1134.83,394.5 1155.17,394.5 1175.5,394.5C 1175.5,403.5 1175.5,412.5 1175.5,421.5C 1155.17,421.5 1134.83,421.5 1114.5,421.5C 1114.5,424.833 1114.5,428.167 1114.5,431.5C 1134.83,431.5 1155.17,431.5 1175.5,431.5C 1175.5,454.5 1175.5,477.5 1175.5,500.5C 1161.5,500.5 1147.5,500.5 1133.5,500.5C 1133.5,505.167 1133.5,509.833 1133.5,514.5C 1147.5,514.5 1161.5,514.5 1175.5,514.5C 1175.5,523.833 1175.5,533.167 1175.5,542.5C 1149.41,542.982 1123.41,542.482 1097.5,541C 1096.87,540.25 1096.37,539.416 1096,538.5C 1095.5,525.838 1095.33,513.171 1095.5,500.5C 1092.75,500.187 1090.09,500.52 1087.5,501.5C 1079.5,514.833 1071.5,528.167 1063.5,541.5C 1047.51,542.666 1031.51,542.833 1015.5,542C 1023.71,528.416 1032.04,514.916 1040.5,501.5C 1032.19,500.502 1023.86,500.169 1015.5,500.5C 1015.5,477.5 1015.5,454.5 1015.5,431.5C 1035.5,431.5 1055.5,431.5 1075.5,431.5C 1075.5,428.167 1075.5,424.833 1075.5,421.5C 1055.5,421.5 1035.5,421.5 1015.5,421.5C 1015.5,412.5 1015.5,403.5 1015.5,394.5C 1035.5,394.5 1055.5,394.5 1075.5,394.5C 1075.5,390.833 1075.5,387.167 1075.5,383.5 Z M 1055.5,458.5 C 1081.84,458.333 1108.17,458.5 1134.5,459C 1139.26,461.339 1140.42,464.839 1138,469.5C 1136.83,470.893 1135.33,471.727 1133.5,472C 1107.83,472.667 1082.17,472.667 1056.5,472C 1048.89,468.041 1048.55,463.541 1055.5,458.5 Z"/></g>
<g><path style="opacity:0.996" fill="#db1e13" d="M 180.5,586.5 C 226.833,586.5 273.167,586.5 319.5,586.5C 319.333,625.501 319.5,664.501 320,703.5C 360.167,664.667 400.333,625.833 440.5,587C 474.498,586.5 508.498,586.333 542.5,586.5C 542.667,622.835 542.5,659.168 542,695.5C 522.833,714 503.667,732.5 484.5,751C 502.133,763.63 516.633,779.13 528,797.5C 536.329,813.824 540.996,831.158 542,849.5C 542.5,882.498 542.667,915.498 542.5,948.5C 494.5,948.5 446.5,948.5 398.5,948.5C 398.667,914.832 398.5,881.165 398,847.5C 394.238,825.402 381.238,813.402 359,811.5C 340.12,812.378 327.453,821.711 321,839.5C 319.532,875.793 319.032,912.126 319.5,948.5C 273.167,948.5 226.833,948.5 180.5,948.5C 180.5,827.833 180.5,707.167 180.5,586.5 Z"/></g>
<g><path style="opacity:0.993" fill="#db1e13" d="M 632.5,586.5 C 738.167,586.5 843.833,586.5 949.5,586.5C 949.5,618.167 949.5,649.833 949.5,681.5C 881.833,681.333 814.166,681.5 746.5,682C 729.259,687.877 722.092,699.71 725,717.5C 731.19,734.014 743.023,740.847 760.5,738C 770.756,734.579 777.422,727.745 780.5,717.5C 836.833,717.5 893.167,717.5 949.5,717.5C 949.5,749.833 949.5,782.167 949.5,814.5C 893.163,814.833 836.829,814.5 780.5,813.5C 774.113,798.471 762.779,791.971 746.5,794C 732.606,798.226 724.94,807.56 723.5,822C 725.581,838.082 734.581,847.748 750.5,851C 816.832,851.5 883.166,851.667 949.5,851.5C 949.5,883.833 949.5,916.167 949.5,948.5C 843.833,948.667 738.166,948.5 632.5,948C 608.743,942.576 593.91,928.076 588,904.5C 587.333,813.167 587.333,721.833 588,630.5C 594.089,606.91 608.923,592.244 632.5,586.5 Z"/></g>
<g><path style="opacity:0.976" fill="#db1e13" d="M 1023.5,586.5 C 1033.5,586.5 1043.5,586.5 1053.5,586.5C 1053.5,595.5 1053.5,604.5 1053.5,613.5C 1055.5,613.5 1057.5,613.5 1059.5,613.5C 1059.5,622.833 1059.5,632.167 1059.5,641.5C 1057.5,641.5 1055.5,641.5 1053.5,641.5C 1053.5,667.167 1053.5,692.833 1053.5,718.5C 1056.5,718.5 1059.5,718.5 1062.5,718.5C 1062.33,681.498 1062.5,644.498 1063,607.5C 1064.32,605.513 1066.15,604.346 1068.5,604C 1085.84,603.833 1103.18,603.333 1120.5,602.5C 1119.24,597.217 1118.24,591.884 1117.5,586.5C 1127.52,586.168 1137.52,586.501 1147.5,587.5C 1149.01,592.737 1150.01,598.07 1150.5,603.5C 1151.83,603.5 1153.17,603.5 1154.5,603.5C 1153.83,598.833 1153.17,594.167 1152.5,589.5C 1160.17,589.5 1167.83,589.5 1175.5,589.5C 1175.5,603.5 1175.5,617.5 1175.5,631.5C 1169.17,631.5 1162.83,631.5 1156.5,631.5C 1157.43,638.631 1158.93,645.631 1161,652.5C 1164.05,648.244 1167.21,644.077 1170.5,640C 1172.11,639.28 1173.61,639.446 1175,640.5C 1175.67,653.167 1175.67,665.833 1175,678.5C 1172.37,682.265 1169.87,686.098 1167.5,690C 1171.1,708.188 1174.77,726.355 1178.5,744.5C 1168.19,745.499 1157.85,745.832 1147.5,745.5C 1140.53,707.809 1133.36,670.143 1126,632.5C 1114.91,631.513 1103.75,631.179 1092.5,631.5C 1092.5,637.833 1092.5,644.167 1092.5,650.5C 1102.84,650.334 1113.17,650.5 1123.5,651C 1124.93,651.465 1126.1,652.299 1127,653.5C 1127.5,684.165 1127.67,714.832 1127.5,745.5C 1118.83,745.5 1110.17,745.5 1101.5,745.5C 1101.5,722.833 1101.5,700.167 1101.5,677.5C 1098.5,677.5 1095.5,677.5 1092.5,677.5C 1092.5,700.167 1092.5,722.833 1092.5,745.5C 1066.83,745.5 1041.17,745.5 1015.5,745.5C 1015.5,736.5 1015.5,727.5 1015.5,718.5C 1018.17,718.5 1020.83,718.5 1023.5,718.5C 1023.5,692.833 1023.5,667.167 1023.5,641.5C 1021.17,641.5 1018.83,641.5 1016.5,641.5C 1016.5,632.167 1016.5,622.833 1016.5,613.5C 1018.83,613.5 1021.17,613.5 1023.5,613.5C 1023.5,604.5 1023.5,595.5 1023.5,586.5 Z"/></g>
<g><path style="opacity:0.978" fill="#db1e13" d="M 1076.5,789.5 C 1089.5,789.5 1102.5,789.5 1115.5,789.5C 1115.5,792.833 1115.5,796.167 1115.5,799.5C 1135.83,799.5 1156.17,799.5 1176.5,799.5C 1176.5,809.5 1176.5,819.5 1176.5,829.5C 1156.17,829.5 1135.83,829.5 1115.5,829.5C 1115.5,834.167 1115.5,838.833 1115.5,843.5C 1131.84,843.333 1148.17,843.5 1164.5,844C 1166.85,844.346 1168.68,845.513 1170,847.5C 1170.5,878.832 1170.67,910.165 1170.5,941.5C 1159.17,941.5 1147.83,941.5 1136.5,941.5C 1136.5,919.5 1136.5,897.5 1136.5,875.5C 1129.5,875.5 1122.5,875.5 1115.5,875.5C 1115.5,899.833 1115.5,924.167 1115.5,948.5C 1102.5,948.5 1089.5,948.5 1076.5,948.5C 1076.5,924.167 1076.5,899.833 1076.5,875.5C 1069.17,875.5 1061.83,875.5 1054.5,875.5C 1054.5,897.5 1054.5,919.5 1054.5,941.5C 1043.5,941.5 1032.5,941.5 1021.5,941.5C 1021.33,910.165 1021.5,878.832 1022,847.5C 1023.32,845.513 1025.15,844.346 1027.5,844C 1043.83,843.5 1060.16,843.333 1076.5,843.5C 1076.5,838.833 1076.5,834.167 1076.5,829.5C 1056.17,829.5 1035.83,829.5 1015.5,829.5C 1015.5,819.5 1015.5,809.5 1015.5,799.5C 1035.83,799.5 1056.17,799.5 1076.5,799.5C 1076.5,796.167 1076.5,792.833 1076.5,789.5 Z"/></g>
</svg>
